<?xml version="1.0" standalone="no"?>
<!DOCTYPE svg PUBLIC "-//W3C//DTD SVG 20010904//EN"
 "http://www.w3.org/TR/2001/REC-SVG-20010904/DTD/svg10.dtd">
<svg version="1.0" xmlns="http://www.w3.org/2000/svg"
 width="130.000000pt" height="130.000000pt" viewBox="0 0 130.000000 130.000000"
 preserveAspectRatio="xMidYMid meet">
<metadata>
Created by potrace 1.14, written by Peter Selinger 2001-2017
</metadata>
<g transform="translate(0.000000,130.000000) scale(0.100000,-0.100000)"
fill="#000000" stroke="none">
<path d="M808 1203 c-55 -14 -152 -58 -181 -82 -89 -73 -127 -133 -134 -208
-9 -97 32 -147 125 -152 l44 -3 -8 34 c-13 53 -8 141 10 176 9 17 16 34 16 37
-1 8 51 55 61 55 4 0 3 -15 -1 -32 -5 -18 -11 -46 -14 -63 -3 -16 -17 -80 -31
-142 -13 -61 -27 -122 -29 -135 -3 -12 -5 -23 -6 -23 -1 0 -3 -9 -5 -20 -5
-37 -54 -252 -61 -270 -7 -17 -8 -17 -15 3 -23 62 -187 64 -237 3 -89 -107
-50 -271 72 -308 36 -11 142 -9 178 3 13 5 26 8 30 9 3 0 27 14 51 32 71 50
129 165 152 303 3 19 12 64 20 100 9 36 18 76 20 90 3 14 8 36 11 50 4 14 8
36 10 48 1 13 10 56 19 95 9 40 19 83 21 97 2 14 18 87 35 163 16 75 27 141
24 147 -8 12 -117 8 -177 -7z m-269 -933 c53 -28 -9 -120 -66 -99 -30 11 -42
38 -31 76 11 41 47 50 97 23z"/>
</g>
</svg>
